<?xml version="1.0" encoding="UTF-8" standalone="no"?>
<!DOCTYPE svg PUBLIC "-//W3C//DTD SVG 1.1//EN" "http://www.w3.org/Graphics/SVG/1.1/DTD/svg11.dtd">
<svg width="100%" height="100%" viewBox="0 0 127 127" version="1.1" xmlns="http://www.w3.org/2000/svg" xmlns:xlink="http://www.w3.org/1999/xlink" xml:space="preserve" xmlns:serif="http://www.serif.com/" style="fill-rule:evenodd;clip-rule:evenodd;stroke-miterlimit:10;">
    <g transform="matrix(0.12,0,0,0.12,-1621.17,-796.558)">
        <g transform="matrix(8.33333,0,0,8.33333,12806.3,0)">
            <g transform="matrix(6.15693e-05,-1,-1,-6.15693e-05,147.629,803.044)">
                <path d="M-56.771,-56.932C-25.425,-56.879 0.039,-31.4 0.044,-0.085C0.049,31.221 -25.413,56.698 -56.771,56.761C-88.066,56.824 -113.76,31.114 -113.649,-0.147C-113.536,-31.542 -88.052,-56.985 -56.771,-56.932Z" style="fill:none;fill-rule:nonzero;stroke:white;stroke-width:1.28px;"/>
            </g>
            <g transform="matrix(1,0,0,1,147.598,839.258)">
                <path d="M0,43.212C-10.314,43.212 -20.628,43.215 -30.942,43.208C-32.399,43.207 -33.81,43.026 -34.963,41.98C-36.891,40.231 -37.236,37.754 -35.708,35.557C-32.708,31.243 -29.647,26.971 -26.608,22.684C-22.072,16.288 -17.559,9.875 -12.967,3.519C-12.25,2.526 -11.296,1.532 -10.222,1.007C-8.135,-0.011 -6.011,0.688 -4.584,2.644C-0.979,7.585 2.579,12.56 6.155,17.523C7.067,18.788 7.95,20.076 8.894,21.317C9.996,22.767 11.062,22.753 12.16,21.306C13.103,20.063 14.002,18.786 14.95,17.548C17.14,14.688 20.705,14.62 22.867,17.523C25.882,21.571 28.767,25.717 31.706,29.822C32.972,31.591 34.193,33.395 35.509,35.127C36.755,36.765 37.279,38.5 36.298,40.397C35.272,42.379 33.481,43.198 31.312,43.205C26.011,43.223 20.71,43.212 15.409,43.212L0,43.212Z" style="fill:none;fill-rule:nonzero;stroke:white;stroke-width:1.28px;"/>
            </g>
            <g transform="matrix(0.999996,0.00293114,0.00293114,-0.999996,162.901,843.576)">
                <path d="M0.025,-0C-4.636,0.001 -8.341,3.735 -8.32,8.409C-8.3,12.995 -4.555,16.724 0.025,16.717C4.596,16.71 8.35,12.982 8.394,8.408C8.437,3.782 4.672,-0.001 0.025,-0Z" style="fill:none;fill-rule:nonzero;stroke:white;stroke-width:1.28px;"/>
            </g>
        </g>
    </g>
</svg>
